<svg xmlns="http://www.w3.org/2000/svg" xmlns:xlink="http://www.w3.org/1999/xlink" viewBox="0 0 1772.74 1413.46"><defs><style>.cls-1{fill:#eee;}.cls-2{fill:#ffbd63;}.cls-3{fill:#9b6723;}.cls-4{fill:#bf8231;}.cls-5{fill:#85581d;}.cls-6{fill:#ec9e32;}.cls-7{fill:#fcc981;}.cls-8{fill:url(#linear-gradient);}.cls-9{fill:#623200;}.cls-10{fill:#8b2f13;}.cls-11{fill:#efb185;}.cls-12{fill:#ec6331;}.cls-13{fill:#d52500;}.cls-14{fill:#111114;}.cls-15{fill:#bb1600;}.cls-16{fill:url(#linear-gradient-2);}.cls-17{fill:url(#linear-gradient-3);}.cls-18{fill:url(#linear-gradient-4);}.cls-19{fill:#1e43a4;}.cls-20{fill:#e8a476;}.cls-21{fill:#db9669;}.cls-22{fill:#f1b287;}.cls-23{fill:#d26200;}.cls-24{fill:#e8b87d;}.cls-25{fill:#dda965;}.cls-26{fill:#fff;}.cls-27{fill:#d4923c;}.cls-28{fill:#432200;}.cls-29{fill:#f9dfbd;}.cls-30{fill:#994e00;}.cls-31{fill:#ee3900;}.cls-32{fill:url(#linear-gradient-5);}.cls-33{fill:#d4933d;}.cls-34{fill:#3b1e00;}.cls-35{fill:url(#linear-gradient-6);}.cls-36{fill:url(#linear-gradient-7);}.cls-37{fill:url(#linear-gradient-8);}.cls-38{fill:url(#linear-gradient-9);}.cls-39{fill:url(#linear-gradient-10);}.cls-40{fill:url(#linear-gradient-11);}.cls-41{fill:url(#linear-gradient-12);}.cls-42{fill:#2e2e2e;}.cls-43{fill:#414141;}.cls-44{fill:#4b4b4b;}.cls-45{fill:url(#linear-gradient-13);}.cls-46{fill:url(#linear-gradient-14);}.cls-47{fill:url(#linear-gradient-15);}.cls-48{fill:url(#linear-gradient-16);}.cls-49{fill:url(#linear-gradient-17);}.cls-50{fill:#f0b184;}.cls-51{fill:#282828;}.cls-52{fill:#6b6b6b;}.cls-53{fill:url(#linear-gradient-18);}.cls-54{fill:url(#linear-gradient-19);}.cls-55{fill:#e7a477;}.cls-56{fill:#3c3936;}.cls-57{fill:#bb0600;}.cls-58{fill:url(#linear-gradient-20);}.cls-59{fill:url(#linear-gradient-21);}.cls-60{fill:none;}.cls-61{fill:url(#linear-gradient-22);}.cls-62{fill:url(#linear-gradient-23);}.cls-63{fill:#a4611e;}.cls-64{fill:#ebb38e;}.cls-65{fill:url(#linear-gradient-24);}.cls-66{fill:url(#linear-gradient-25);}.cls-67{fill:url(#linear-gradient-26);}.cls-68{fill:url(#linear-gradient-27);}</style><linearGradient id="linear-gradient" x1="-979.39" y1="718.87" x2="-977.75" y2="719.07" gradientTransform="matrix(-25.77, 30.88, 42.1, 25.48, -54020.69, 12317.27)" gradientUnits="userSpaceOnUse"><stop offset="0" stop-color="#fff"/><stop offset="1" stop-color="#fff"/></linearGradient><linearGradient id="linear-gradient-2" x1="-975.49" y1="710.28" x2="-973.86" y2="710.28" gradientTransform="matrix(-25.7, 193.27, 193.27, 25.7, -161089.53, 170420.16)" gradientUnits="userSpaceOnUse"><stop offset="0" stop-color="#ff4e00"/><stop offset="0.57" stop-color="#d71b00"/><stop offset="1" stop-color="#c50500"/></linearGradient><linearGradient id="linear-gradient-3" x1="-975.49" y1="710.5" x2="-973.86" y2="710.5" xlink:href="#linear-gradient-2"/><linearGradient id="linear-gradient-4" x1="-975.49" y1="710.34" x2="-973.86" y2="710.34" xlink:href="#linear-gradient-2"/><linearGradient id="linear-gradient-5" x1="-976.7" y1="716.95" x2="-975.07" y2="717.3" gradientTransform="matrix(-23.47, 20.63, 38.35, 23.02, -49414.4, 4106.41)" xlink:href="#linear-gradient"/><linearGradient id="linear-gradient-6" x1="-975.16" y1="714.32" x2="-973.53" y2="714.32" gradientTransform="matrix(-29.28, 47.83, 47.83, 29.28, -61929.18, 26225.16)" xlink:href="#linear-gradient"/><linearGradient id="linear-gradient-7" x1="-976.45" y1="717.1" x2="-974.82" y2="717.1" gradientTransform="matrix(-29.28, 47.83, 47.83, 29.28, -61658.13, 26256.01)" xlink:href="#linear-gradient"/><linearGradient id="linear-gradient-8" x1="-975.23" y1="716.43" x2="-973.59" y2="716.43" gradientTransform="matrix(-29.28, 47.83, 47.83, 29.28, -61765.88, 26318.2)" xlink:href="#linear-gradient"/><linearGradient id="linear-gradient-9" x1="-976.36" y1="713.59" x2="-974.73" y2="713.59" gradientTransform="matrix(-29.28, 47.83, 47.83, 29.28, -61929.18, 26100.2)" xlink:href="#linear-gradient"/><linearGradient id="linear-gradient-10" x1="-972.71" y1="714.83" x2="-971.08" y2="715.03" gradientTransform="matrix(-24.86, 29.79, 40.62, 24.59, -52639.87, 12041.16)" xlink:href="#linear-gradient"/><linearGradient id="linear-gradient-11" x1="-974.57" y1="713.69" x2="-972.94" y2="713.89" gradientTransform="matrix(-24.86, 29.79, 40.62, 24.59, -52639.87, 11908.85)" xlink:href="#linear-gradient"/><linearGradient id="linear-gradient-12" x1="-972.76" y1="716.67" x2="-971.13" y2="716.87" gradientTransform="matrix(-24.86, 29.79, 40.62, 24.59, -52519.25, 12110.72)" xlink:href="#linear-gradient"/><linearGradient id="linear-gradient-13" x1="-970.75" y1="714.2" x2="-969.12" y2="714.4" gradientTransform="matrix(-24.86, 29.79, 40.62, 24.59, -52757.51, 12109.32)" xlink:href="#linear-gradient"/><linearGradient id="linear-gradient-14" x1="-972.61" y1="713.06" x2="-970.98" y2="713.26" gradientTransform="matrix(-24.86, 29.79, 40.62, 24.59, -52757.51, 11977)" xlink:href="#linear-gradient"/><linearGradient id="linear-gradient-15" x1="-975.16" y1="712.08" x2="-973.53" y2="712.08" gradientTransform="matrix(-26.24, 42.87, 42.87, 26.24, -55643.27, 23408.03)" xlink:href="#linear-gradient"/><linearGradient id="linear-gradient-16" x1="-972.38" y1="727.89" x2="-970.74" y2="728.24" gradientTransform="matrix(-16.65, 14.63, 27.2, 16.32, -34665.44, 3295.58)" xlink:href="#linear-gradient"/><linearGradient id="linear-gradient-17" x1="-949.42" y1="705.36" x2="-947.79" y2="705.71" gradientTransform="matrix(16.65, 14.63, -27.2, 16.32, 36363.58, 3244.97)" xlink:href="#linear-gradient"/><linearGradient id="linear-gradient-18" x1="-976.68" y1="707.19" x2="-975.05" y2="707.19" gradientTransform="matrix(78.87, -237.02, -237.02, -78.87, 244870.38, -174834.77)" xlink:href="#linear-gradient-2"/><linearGradient id="linear-gradient-19" x1="-976.68" y1="707.3" x2="-975.05" y2="707.3" gradientTransform="matrix(78.87, -237.02, -237.02, -78.87, 244870.38, -174834.77)" xlink:href="#linear-gradient-2"/><linearGradient id="linear-gradient-20" x1="-967.74" y1="698.73" x2="-966.11" y2="698.73" gradientTransform="matrix(72.09, 0, 0, -37.66, 71266.26, 27230.54)" gradientUnits="userSpaceOnUse"><stop offset="0" stop-color="#00148b"/><stop offset="1" stop-color="#000120"/></linearGradient><linearGradient id="linear-gradient-21" x1="-967.74" y1="697.97" x2="-966.11" y2="697.97" xlink:href="#linear-gradient-20"/><linearGradient id="linear-gradient-22" x1="-987.35" y1="706" x2="-985.72" y2="706" gradientTransform="translate(-48511.01 115799.4) rotate(180) scale(50.78 162.88)" xlink:href="#linear-gradient-2"/><linearGradient id="linear-gradient-23" x1="-966.93" y1="705.85" x2="-965.3" y2="705.85" gradientTransform="matrix(66.47, 0, 0, -114.66, 65792.48, 81545.54)" xlink:href="#linear-gradient-2"/><linearGradient id="linear-gradient-24" x1="-970.8" y1="716.04" x2="-969.17" y2="716.24" gradientTransform="matrix(-24.86, 29.79, 40.62, 24.59, -52637.15, 12178.78)" xlink:href="#linear-gradient"/><linearGradient id="linear-gradient-25" x1="-972.66" y1="714.9" x2="-971.03" y2="715.1" gradientTransform="matrix(-24.86, 29.79, 40.62, 24.59, -52637.15, 12046.5)" xlink:href="#linear-gradient"/><linearGradient id="linear-gradient-26" x1="-970.56" y1="719.77" x2="-968.93" y2="719.77" gradientTransform="matrix(-19.54, 31.92, 31.92, 19.54, -41176.03, 17905.17)" xlink:href="#linear-gradient"/><linearGradient id="linear-gradient-27" x1="-966.84" y1="716.93" x2="-965.21" y2="717.13" gradientTransform="matrix(-24.86, 29.79, 40.62, 24.59, -52736.09, 12401.1)" xlink:href="#linear-gradient"/></defs><title>Asset 66</title><g id="Layer_2" data-name="Layer 2"><g id="Layer_1-2" data-name="Layer 1"><path class="cls-1" d="M1602.06,380.39,977.26,741.12l170.68,98.54,624.8-360.73-170.68-98.54Z"/><path class="cls-1" d="M1348.7,901.39l-130.22,75.18,128,73.89,130.22-75.18Z"/><path class="cls-1" d="M525.5,1199,338.65,1306.9l184.57,106.56,186.85-107.87Z"/><path class="cls-1" d="M892.87,725.9,571.28,911.57,742,1010.11l321.58-185.67Z"/><path class="cls-1" d="M388.08,729.83l-115.9,66.91,554.08,319.9,115.9-66.91Z"/><path class="cls-2" d="M1587.63,128.63,1404.44,234.4l183.19,105.77,183.2-105.77Z"/><path class="cls-3" d="M1587.63,143.11,1429.51,234.4l158.12,91.29,158.12-91.29-158.12-91.29Z"/><path class="cls-4" d="M1587.63,148.84l-153.15,88.42,153.15,88.43,153.16-88.42Z"/><path class="cls-5" d="M1630.13,173.38,1477,261.8l-4.28-2.47,153.15-88.42Z"/><path class="cls-5" d="M1691.46,208.79l-153.15,88.42-4.28-2.47,153.15-88.42Z"/><path class="cls-6" d="M1587.63,340.17l183.2-105.77V445.93L1587.63,551.7Z"/><path class="cls-3" d="M1758.29,256.12l-158.11,91.29V530l158.11-91.29V256.12Z"/><path class="cls-4" d="M1752.4,259.52l-152.23,87.89V523.18l152.23-87.89Z"/><path class="cls-7" d="M1587.63,340.17,1404.44,234.4V445.93L1587.63,551.7Z"/><path class="cls-3" d="M1573.55,348.29l-155-89.51v179l155,89.52v-179Z"/><path class="cls-4" d="M1573.55,348.29l-149.86-86.52V436l149.86,86.52Z"/><path class="cls-5" d="M1460.25,282.88V457.14l-4.28-2.47V280.41Z"/><path class="cls-5" d="M1521.58,318.29V492.55l-4.28-2.47V315.82Z"/><path class="cls-5" d="M1712.33,282.88V458.43l4.28-2.47V280.41Z"/><path class="cls-5" d="M1651,318.29V493.84l4.27-2.48V315.82Z"/><path class="cls-8" d="M1503.59,423.47l-70.46-40.68V423.1l70.46,40.68V423.47Z"/><path class="cls-9" d="M1693.74,427.81l13.76-7.94v34.4l-13.76,8Z"/><path class="cls-9" d="M1733.9,404.63l13.76-7.95v34.4L1733.9,439Z"/><path class="cls-10" d="M1291.18,28.16c38.7-9.27,44.21,67,14.76,89.45-5.12,3.9-20.88.33-22-5.34-4.67-23.3,29.44-47.71,12.07-69.84a13.75,13.75,0,0,1-3.28-3.26C1289.91,35.26,1281.78,31.33,1291.18,28.16Z"/><path class="cls-11" d="M1141.08,174s-17.32,8.64-26.29,6.64-21.06-8.28-16-11.16,18.65-1.87,19.35-5.59-7.87-2.88-3.8-4.88,11.87-2.75,26.51,5A7.8,7.8,0,0,1,1141.08,174Z"/><path class="cls-12" d="M1231.17,85.49s13.72-5.18,13.78,10.74c0,0-2.11,21-18.79,51.63,0,0-15.65,30.21-23.75,31.73s-66.56-.07-66.56-.07a28.63,28.63,0,0,0-.14-19S1187,155,1190.79,151,1220,88.52,1231.17,85.49Z"/><path class="cls-13" d="M1202.4,179.59c-6.36,1.17-50.78.29-66.55-.07a13.13,13.13,0,0,0,1.11-4.78s55.92-6.63,59.71-10.58,29.2-62.5,40.38-65.5a13.82,13.82,0,0,1,7.61-.4c-1,5.95-4.87,24.53-18.5,49.6,0,0-15.65,30.21-23.76,31.73Z"/><path class="cls-14" d="M1229.24,454.67s1.78,9.88-3.12,15.73-25.14,16-23.62,22.06,17.43,6.83,27.52-3.11,12.81-11.47,17.08-12.33,10.41-6.12,6.11-15.51c0,0-18.58.36-24-6.84Z"/><path class="cls-15" d="M1228.81,201.06s-18.41,90.24-8.3,140.27c0,0,4.65,39.46,6.83,50.31s1.88,69.87,1.88,69.87,16.6,7.09,25-.67c0,0,10.73-60.75-1-99.46,0,0,13.84-74,14.16-98.05a379,379,0,0,1,3.34-44.82l-41.84-17.45Z"/><path class="cls-16" d="M1220.51,341.33s4.66,39.46,6.84,50.31,1.88,69.87,1.88,69.87a46.21,46.21,0,0,0,6.58,2c1.21-17.57,3.44-48.23,4.37-55.16,1.36-9.86-9.79-63.87-10.68-83.93s21.34-95.27,21.34-95.27l-6.16-21.46-15.86-6.62s-18.41,90.24-8.31,140.27Z"/><path class="cls-14" d="M1284.7,472.85s-.86,11-5.6,17-21.43,27.18-19.78,33.23,17.58,6.36,27.45-3.83,8.26-13.8,12.22-18c3-3.18,9.47-8.42,4.92-17.69C1303.91,483.55,1290.28,479.9,1284.7,472.85Z"/><path class="cls-17" d="M1303.86,230.74s17.79,25.46,9.2,77.45l-3.81,62.1s11.78,19.89,3.31,80.25l-8.12,36.29s-10.06,7.37-21.17-7.66c0,0,.81-89.29-3.39-103-3.06-10.05-17-52-22.54-92.55-2-14.79-24.88-39.25-23.69-52l70.21-.79Z"/><path class="cls-15" d="M1304.44,486.83l8.12-36.29c8.47-60.36-3.31-80.25-3.31-80.25l3.81-62.1c4.54-27.53,1.7-47.62-2-60.43-3.28-11.38-5.11-19.42-5.11-19.42l-4.15,2.43-19.48,12.59s19.3,98.33,17.89,123.31,5.65,54.17,4.7,69.72c-.6,10-5.07,35.29-8.19,52.15a11.75,11.75,0,0,0,7.71-1.71Z"/><path class="cls-18" d="M1315.74,121.84s-14.33-27-71.67-35.9c-1.2-.19-4.86-1.22-8.56.31-4.9,2-9.88,8.54-9.32,27.44.13,4.77-20.49,38.25-1,58.16,0,0,7.58,29.57-1.46,48.7-8,17.09,34.14,33.77,70.07,30.3,4.41-.43,16.63-4.68,12.77-20.11s-15.42-41-8.19-69.41S1320.56,136.3,1315.74,121.84Z"/><path class="cls-15" d="M1315.74,120.82c4.82,14.43-10.09,11.05-17.32,39.46s4.33,55.06,8.19,70.46-4.07,20.11-7.62,22.76c-5,3.73-10.8,3.6-15.13-2.19-3.16-28.36-33.75-76.61-17.31-98.78,10.29-13.88,22.7-21.61,25.85-24.41,6.85-6.11,23.34-7.3,23.34-7.3Z"/><path class="cls-19" d="M1271.18,150.14l-26.36-15.22v13.26l26.36,15.22Z"/><path class="cls-20" d="M1240.47,71s8.9,16.58.67,29.58c-4.57,7.23-3.38,18.48,21.73,13.74,0,0,26.54-11,19.46-19.28-4.68-5.54-9-13.35.5-39.2Z"/><path class="cls-21" d="M1282.34,95.05a4,4,0,0,1,1.11,2.66c-23.84,2.88-38.71-14.91-38.71-14.91l32.55-24.61s1.46,1.16,3.65,3.09C1273.94,82.82,1278,89.93,1282.34,95.05Z"/><path class="cls-22" d="M1248.15,24.47S1238.71,26.38,1237,46c-.21,2.16-.69,37.44,11.82,40.73,9,2.38,26-2,35.35-23.44s-7.32-51.23-36-38.81Z"/><path class="cls-20" d="M1248.15,24.47S1238.71,26.38,1237,46c-.21,2.16,1.37,8.92,13.87,12.21,9.06,2.38,29.42,7,31.5-1C1288.25,34.63,1276.81,12.05,1248.15,24.47Z"/><path class="cls-22" d="M1272.64,66.18s4.31-10.6,10.29-6.81c1.87,1.22,3.83,3.62.42,9s-10,9.94-14.89,8.95Z"/><path class="cls-23" d="M1291.18,28.16a23.31,23.31,0,0,1,12.87.24c3.44,9.24,1,16.15-3.62,23.12a22.79,22.79,0,0,0-4.42-9.09,13.75,13.75,0,0,1-3.28-3.26C1289.91,35.26,1281.78,31.33,1291.18,28.16Z"/><path class="cls-10" d="M1249.67,15.5c9.42-8,20.86-6.26,31.93-2.67,9.59,3.11,18.94,13.26,19.22,22.69.42,13.06-3.93,30-19.42,37.76-5.72,2.9,4.07-11.05-3.52-11.77-2.43-.23-3.16-4.24-4.92-5-1.28.62-10.86-4.59-21.24-8.15-.77-.26-1.73-6.57-2.48-6.82-1-.34-1.73,5.38-2.65,5.06a41.13,41.13,0,0,1-9.23-4.61c-2.25-9.58,5.63-20.85,12.31-26.53Z"/><path class="cls-12" d="M1302.46,37.25a37.77,37.77,0,0,1-1.27,4l-.3.24v0l-1,.82a46,46,0,0,1-4.07,2.84,40.85,40.85,0,0,1-6.52,3.25l-2.25.75-.39.13-1,.28-.84.2-.15,0-2.14.41-2,.31h0l-.18,0-1.06.11-1.06.08-.54,0h-.18l-1.09,0h-1.86c-.9,0-1.84-.09-2.77-.18l-.54-.06-1.72-.23-.19-.05c-3-3.29-5.91-6.34-8.84-9.08-6.33-6-12.57-10.68-18.67-13.74l-.19-.08c-1-.5-2-1-3.06-1.36l3.26-8.83,2.23-6.05a12.76,12.76,0,0,1,7.12-7.44c17.43-7,33.33-4.18,47.49,10.34C1303.72,20.89,1304.74,28.67,1302.46,37.25Z"/><path class="cls-13" d="M1274.54,50.79h0c-3.94,2.06-2.58,2.48-12.07,6.24-4,1.63-10.45,1.57-13.58-2.75l-.59-.78a45.73,45.73,0,0,0-10.81-9.36l-.37-.25a43,43,0,0,0-9.91-4.75,18.26,18.26,0,0,0-8.14-1l-.2-1c3.42-2,6.9-4.09,10-5.93,4.75-2.86,8.55-5.06,9.7-5.2a27.44,27.44,0,0,1,3.52-.17l.26,0h1.75a11.49,11.49,0,0,1,2.27.23c5.37,1.38,11.46,4.79,16.66,9.2h0a46.11,46.11,0,0,1,8.23,9l.55.85a25.18,25.18,0,0,1,2.73,5.71Z"/><path class="cls-22" d="M1275.89,57.36c-3.52,3.2-4.82,7.51-2.89,9.61s6.31,1.19,9.85-2,4.79-7.51,2.88-9.6-6.34-1.23-9.84,2Z"/><path class="cls-24" d="M1154.92,185.53l-82.66-47.72v61.31l82.66,47.73Z"/><path class="cls-25" d="M1154.92,185.57l82.66-47.73v61.29l-82.66,47.72Z"/><path class="cls-26" d="M1209.19,127.57l22.6-13v16.76l-22.6,13V127.57Z"/><path class="cls-27" d="M1237.58,137.84l-83.17-48-82.66,47.73,83.17,48Z"/><path class="cls-28" d="M1202.3,117.47l-20.87-12-82.63,47.71,20.87,12.05Z"/><path class="cls-9" d="M1098.8,153.13l20.87,12.05v60.76l-20.87-12.05Z"/><path class="cls-24" d="M1154.92,121.75,1072.26,74v61.32l82.66,47.72Z"/><path class="cls-25" d="M1154.92,121.78l82.66-47.72v61.28l-82.66,47.73Z"/><path class="cls-26" d="M1209.19,127.57l22.6-13v16.76l-22.6,13V127.57Z"/><path class="cls-26" d="M1209.19,188.41l22.6-13v16.75l-22.6,13Z"/><path class="cls-29" d="M1237.58,74.06l-83.17-48-82.66,47.72,83.17,48Z"/><path class="cls-30" d="M1202.3,53.69l-20.87-12-82.63,47.7,20.87,12Z"/><path class="cls-9" d="M1098.8,89.34l20.87,12v61.32l-20.87-12Z"/><path class="cls-11" d="M1222.8,201.73s-18.82,4.45-27.1.46-18.62-12.81-13.09-14.47,18.6,2.39,20.12-1.07-7-4.58-2.6-5.63,12.18,0,24.71,10.86a7.77,7.77,0,0,1-2,9.85Z"/><path class="cls-31" d="M1312.06,117.35s-13.62-5.74-21.71,15.17-21.75,55.9-21.75,55.9l-3.42,4.77-46.53-6.74s6.11,12-4.08,18.32c0,0,57,25.84,73.61,8.55,0,0,47.18-89.4,23.88-96Z"/><path class="cls-29" d="M1053.3,256.54,888.12,351.91l165.18,95.36,165.18-95.36Z"/><path class="cls-25" d="M1218.48,351.91,1053.3,447.27V555.06l165.18-95.36Z"/><path class="cls-9" d="M1161.34,385.71l-50.9,29.38v38.44l50.9-29.39Z"/><path class="cls-30" d="M996.17,290.34l-50.9,29.39,165.18,95.36,50.89-29.38Z"/><path class="cls-24" d="M1053.3,447.27,888.12,351.91V459.7l165.18,95.36Z"/><path class="cls-32" d="M1028.26,486.7l-64.18-37.05v30.11l64.18,37.06Z"/><path class="cls-9" d="M1175.13,432.78l15.2-8.78v38l-15.2,8.77Z"/><path class="cls-9" d="M1194,422.12l15.21-8.77v38L1194,460.12Z"/><path class="cls-33" d="M876.76,262.82,706.08,361.36l170.68,98.55,170.68-98.55L876.76,262.82Z"/><path class="cls-25" d="M1047.43,361.36,876.75,459.91V657l170.68-98.54Z"/><path class="cls-9" d="M988.39,396.29,935.8,426.66V494l52.59-30.36Z"/><path class="cls-34" d="M817.71,297.75l-52.59,30.36L935.8,426.66l52.59-30.37Z"/><path class="cls-24" d="M876.76,459.91,706.08,361.36V558.45L876.76,657Z"/><path class="cls-35" d="M805.15,529.76l-80-46.21v57l80,46.22Z"/><path class="cls-9" d="M999.08,527.48l15.7-9.07v39.27l-15.7,9.07Z"/><path class="cls-9" d="M1020.05,515.38l15.71-9.07v39.26l-15.71,9.07Z"/><path class="cls-29" d="M1318.62,312.85l-170.68,98.54,170.68,98.54,170.68-98.54Z"/><path class="cls-25" d="M1489.3,411.39l-170.68,98.54V707l170.68-98.54Z"/><path class="cls-9" d="M1430.26,446.32l-52.6,30.36V544l52.6-30.36Z"/><path class="cls-30" d="M1259.58,347.78,1207,378.14l170.68,98.54,52.6-30.36Z"/><path class="cls-24" d="M1318.62,509.93l-170.68-98.54V608.48L1318.62,707Z"/><path class="cls-36" d="M1247,579.79l-80-46.21v57l80,46.22Z"/><path class="cls-9" d="M1440.94,577.51l15.71-9.07v39.27l-15.71,9.07Z"/><path class="cls-9" d="M1461.91,565.4l15.71-9.07V595.6l-15.71,9.07Z"/><path class="cls-29" d="M1143,414.25,972.31,512.79,1143,611.33l170.68-98.54Z"/><path class="cls-25" d="M1313.66,512.79,1143,611.33V808.42l170.68-98.54V512.79Z"/><path class="cls-9" d="M1254.62,547.72,1202,578.08v67.34l52.59-30.36Z"/><path class="cls-30" d="M1083.94,449.18l-52.59,30.36L1202,578.08l52.59-30.36Z"/><path class="cls-24" d="M1143,611.33,972.31,512.79V709.88L1143,808.42Z"/><path class="cls-37" d="M1071.37,681.19l-80-46.21v57l80,46.22Z"/><path class="cls-9" d="M1265.31,678.91l15.7-9.07v39.27l-15.7,9.07Z"/><path class="cls-9" d="M1286.28,666.8l15.7-9.06V697l-15.7,9.07Z"/><path class="cls-29" d="M876.76,58.94,706.08,157.48,876.76,256l170.68-98.55L876.76,58.94Z"/><path class="cls-25" d="M1047.43,157.48,876.75,256V453.11l170.68-98.54V157.48Z"/><path class="cls-9" d="M988.39,192.41,935.8,222.78v67.33l52.59-30.36Z"/><path class="cls-30" d="M817.71,93.87l-52.59,30.36L935.8,222.78l52.59-30.37Z"/><path class="cls-24" d="M876.76,256,706.08,157.48V354.57l170.68,98.54V256Z"/><path class="cls-38" d="M805.15,325.88l-80-46.21v57l80,46.22Z"/><path class="cls-9" d="M999.08,323.6l15.7-9.07V353.8l-15.7,9.07Z"/><path class="cls-9" d="M1020.05,311.5l15.71-9.07v39.26l-15.71,9.07V311.5Z"/><path class="cls-2" d="M680.08,381.21l-176.75,102,176.75,102,176.74-102Z"/><path class="cls-3" d="M680.08,395.18,527.53,483.25l152.55,88.07,152.55-88.07Z"/><path class="cls-4" d="M680.08,400.71,532.32,486l147.76,85.3L827.84,486Z"/><path class="cls-5" d="M721.07,424.38,573.31,509.69l-4.13-2.38L716.94,422l4.13,2.38Z"/><path class="cls-5" d="M780.25,458.54,632.49,543.85l-4.13-2.38,147.76-85.31Z"/><path class="cls-6" d="M680.08,585.29l176.74-102V687.34l-176.74,102Z"/><path class="cls-3" d="M844.72,504.2,692.17,592.28V768.43l152.55-88.08Z"/><path class="cls-4" d="M839,507.49,692.17,592.28V761.87L839,677.07Z"/><path class="cls-3" d="M722.16,575.21l-14.26,8.23V753l14.26-8.23Z"/><path class="cls-7" d="M680.08,585.29l-176.75-102V687.34l176.75,102Z"/><path class="cls-3" d="M666.49,593.14,516.91,506.78V679.5l149.58,86.35Z"/><path class="cls-4" d="M666.49,593.14,521.91,509.66V677.78l144.58,83.48V593.14Z"/><path class="cls-3" d="M656.43,587.33l-11.3-6.53V748.92l11.3,6.53V587.33Z"/><path class="cls-3" d="M563.74,533.82l-11.3-6.53V695.41l11.3,6.53V533.82Z"/><path class="cls-5" d="M557.18,530V698.15l-4.13-2.39V527.64Z"/><path class="cls-5" d="M616.35,564.19V732.31l-4.13-2.38V561.8Z"/><path class="cls-5" d="M800.38,530V699.39l4.13-2.38V527.64Z"/><path class="cls-5" d="M741.21,564.19V733.55l4.12-2.38V561.8Z"/><path class="cls-39" d="M599,665.66l-68-39.25V665.3l68,39.25Z"/><path class="cls-9" d="M782.45,669.86l13.27-7.67v33.19L782.45,703Z"/><path class="cls-9" d="M821.2,647.48l13.27-7.66V673l-13.27,7.66Z"/><path class="cls-2" d="M680.08,165.52l-176.75,102,176.75,102,176.74-102Z"/><path class="cls-3" d="M680.08,179.49,527.53,267.57l152.55,88.07,152.55-88.07Z"/><path class="cls-4" d="M680.08,185l-147.76,85.3,147.76,85.31,147.76-85.31Z"/><path class="cls-3" d="M804.5,256.87,656.75,342.18l9.74,5.62,147.75-85.31-9.74-5.62Z"/><path class="cls-5" d="M721.07,208.7,573.31,294l-4.13-2.38,147.76-85.31Z"/><path class="cls-5" d="M780.25,242.86,632.49,328.17l-4.13-2.39,147.76-85.3Z"/><path class="cls-6" d="M680.08,369.61l176.74-102V471.66l-176.74,102Z"/><path class="cls-3" d="M844.72,288.52,692.17,376.6V552.75l152.55-88.08Z"/><path class="cls-4" d="M839,291.8,692.17,376.6V546.18L839,461.39Z"/><path class="cls-3" d="M722.16,359.29l-14.26,8.23V537.1l14.26-8.23Z"/><path class="cls-7" d="M680.08,369.61l-176.75-102V471.66l176.75,102Z"/><path class="cls-3" d="M666.49,377.45,516.91,291.1V463.81l149.58,86.36Z"/><path class="cls-4" d="M666.49,377.45,521.91,294V462.1l144.58,83.48V377.45Z"/><path class="cls-3" d="M656.43,371.6l-11.3-6.52V533.2l11.3,6.53V371.6Z"/><path class="cls-3" d="M563.74,318.09l-11.3-6.53V479.69l11.3,6.52Z"/><path class="cls-5" d="M557.18,314.34V482.46l-4.13-2.38V312Z"/><path class="cls-5" d="M616.35,348.51V516.63l-4.13-2.39V346.12Z"/><path class="cls-5" d="M800.38,314.34V483.71l4.13-2.39V312Z"/><path class="cls-5" d="M741.21,348.51V517.87l4.12-2.38V346.12Z"/><path class="cls-40" d="M599,450l-68-39.25v38.89l68,39.25Z"/><path class="cls-9" d="M782.45,454.17l13.27-7.66V479.7l-13.27,7.66Z"/><path class="cls-9" d="M821.2,431.8l13.27-7.66v33.19L821.2,465Z"/><path class="cls-2" d="M876.72,494.62,700,596.67l176.75,102,176.74-102Z"/><path class="cls-3" d="M876.72,508.59,724.16,596.67l152.56,88.07,152.54-88.07Z"/><path class="cls-4" d="M876.72,514.13,729,599.43l147.76,85.31,147.75-85.31Z"/><path class="cls-3" d="M1001.14,586,853.38,671.28l9.74,5.62,147.76-85.31Z"/><path class="cls-5" d="M917.71,537.8,770,623.1l-4.13-2.38,147.76-85.31Z"/><path class="cls-5" d="M976.89,572,829.13,657.27,825,654.88l147.76-85.3Z"/><path class="cls-6" d="M876.72,698.71l176.74-102V800.75l-176.74,102Z"/><path class="cls-3" d="M1041.35,617.62,888.8,705.7V881.84l152.55-88.07Z"/><path class="cls-4" d="M1035.68,620.9,888.81,705.7V875.28l146.87-84.79Z"/><path class="cls-3" d="M918.79,688.39l-14.25,8.23V866.2L918.79,858V688.39Z"/><path class="cls-7" d="M876.72,698.71,700,596.67V800.75l176.75,102Z"/><path class="cls-3" d="M863.13,706.55,713.55,620.19V792.91l149.58,86.36V706.55Z"/><path class="cls-4" d="M863.13,706.55,718.54,623.07V791.2l144.59,83.47V706.55Z"/><path class="cls-3" d="M853.07,700.7l-11.3-6.52V862.3l11.3,6.52Z"/><path class="cls-3" d="M760.38,647.19l-11.3-6.53V808.79l11.3,6.52Z"/><path class="cls-5" d="M753.82,643.44V811.56l-4.13-2.38V641.06l4.13,2.38Z"/><path class="cls-5" d="M813,677.6V845.72l-4.13-2.38V675.22Z"/><path class="cls-5" d="M997,643.44V812.81l4.13-2.39V641.06Z"/><path class="cls-5" d="M937.84,677.6V847l4.13-2.38V675.22l-4.13,2.38Z"/><path class="cls-41" d="M795.64,779.08l-68-39.25v38.89l68,39.25Z"/><path class="cls-9" d="M979.09,783.27l13.27-7.66v33.18l-13.27,7.67Z"/><path class="cls-9" d="M1017.84,760.9l13.27-7.67v33.19l-13.27,7.67Z"/><path class="cls-42" d="M1025.32,612.91l-23.95,13.82V832.61l23.95-13.82V612.91Z"/><path class="cls-42" d="M932.23,666.66l-23.94,13.82V886.36l23.94-13.82V666.66Z"/><path class="cls-43" d="M755.48,564.61l-24,13.83,176.75,102,23.94-13.82Z"/><path class="cls-42" d="M806.44,594,782.5,607.86l11.06,6.39,23.94-13.83Z"/><path class="cls-42" d="M898.61,647.25l-23.94,13.83,11.06,6.38,23.94-13.83Z"/><path class="cls-43" d="M848.58,510.87l-24,13.82,176.75,102,23.94-13.82Z"/><path class="cls-42" d="M899.54,540.29,875.6,554.12l11.06,6.38,23.94-13.82Z"/><path class="cls-42" d="M991.71,593.5l-23.94,13.83,11.05,6.38,23.95-13.82-11.06-6.39Z"/><path class="cls-42" d="M824.63,666.66l23.94,13.82V886.55l-23.94-13.82V666.66Z"/><path class="cls-42" d="M731.54,612.91l24,13.82V832.81l-24-13.83V612.91Z"/><path class="cls-44" d="M1001.37,564.61l23.95,13.83-176.75,102-23.94-13.82Z"/><path class="cls-44" d="M908.29,510.87l23.94,13.82-176.75,102-23.94-13.82Z"/><path class="cls-42" d="M735.59,337.56l-23.94,13.82v419.4L735.59,757Z"/><path class="cls-42" d="M828.68,283.81l-23.94,13.83V717l23.94-13.82Z"/><path class="cls-43" d="M558.84,235.52,534.9,249.34l176.74,102,23.94-13.82Z"/><path class="cls-42" d="M609.81,264.94l-23.95,13.82,11.06,6.39,23.94-13.83Z"/><path class="cls-42" d="M702,318.15,678,332l11.06,6.38L713,324.54Z"/><path class="cls-43" d="M651.94,181.77l-24,13.82,176.75,102,23.94-13.83Z"/><path class="cls-42" d="M702.9,211.19,679,225,690,231.4,714,217.58l-11.06-6.39Z"/><path class="cls-42" d="M795.07,264.41l-23.94,13.82,11.06,6.38,23.94-13.82Z"/><path class="cls-42" d="M628,337.56l24,13.82v419.4L628,757Z"/><path class="cls-42" d="M534.91,283.81l23.94,13.83V717l-23.94-13.82Z"/><path class="cls-44" d="M804.73,235.52l23.95,13.82-176.75,102L628,337.56Z"/><path class="cls-44" d="M711.65,181.77l23.94,13.82-176.74,102-24-13.83Z"/><path class="cls-11" d="M177.44,435.78s17.33,8.64,26.29,6.64,21.07-8.28,16-11.16-18.65-1.87-19.34-5.59,7.87-2.88,3.8-4.88-11.88-2.74-26.51,4.95A7.81,7.81,0,0,0,177.44,435.78Z"/><path class="cls-12" d="M87.36,347.24S73.63,342.06,73.58,358c0,0,2.11,21,18.78,51.63,0,0,15.66,30.21,23.76,31.73s66.55-.07,66.55-.07a28.68,28.68,0,0,1,.15-19s-51.3-5.6-55.08-9.55S98.54,350.27,87.36,347.24Z"/><path class="cls-13" d="M116.12,441.34c6.36,1.17,50.78.29,66.55-.07a13.13,13.13,0,0,1-1.11-4.78s-55.92-6.63-59.71-10.58-29.19-62.5-40.38-65.5a13.82,13.82,0,0,0-7.61-.4c1,5.95,4.87,24.53,18.5,49.6C92.36,409.61,108,439.82,116.12,441.34Z"/><path class="cls-14" d="M89.28,716.42s-1.78,9.87,3.12,15.73,25.14,16,23.62,22.06S98.58,761,88.5,751.1s-12.81-11.47-17.08-12.33S61,732.65,65.31,723.26C65.31,723.26,83.89,723.62,89.28,716.42Z"/><path class="cls-13" d="M89.71,462.81s18.41,90.24,8.3,140.28c0,0-4.65,39.45-6.83,50.3s-1.88,69.87-1.88,69.87-16.6,7.09-25-.67c0,0-10.72-60.76,1-99.46,0,0-13.84-74-14.16-98a379.31,379.31,0,0,0-3.34-44.83Z"/><path class="cls-12" d="M98,603.09s-4.65,39.45-6.83,50.3-1.88,69.87-1.88,69.87a46.11,46.11,0,0,1-6.59,2c-1.2-17.57-3.43-48.23-4.36-55.16C77,660.23,88.14,606.22,89,586.16s-21.35-95.27-21.35-95.27l6.17-21.46,15.86-6.62s18.41,90.24,8.3,140.28Z"/><path class="cls-14" d="M33.82,734.6s.87,11,5.6,17,21.43,27.18,19.78,33.23S41.63,791.2,31.76,781s-8.27-13.78-12.22-18c-3-3.18-9.48-8.42-4.92-17.69C14.62,745.3,28.25,741.65,33.82,734.6Z"/><path class="cls-12" d="M14.66,492.49S-3.13,518,5.46,569.94L9.27,632S-2.51,651.93,6,712.28l8.12,36.3s10.06,7.37,21.17-7.66c0,0-.81-89.29,3.39-103,3.06-10,17-52,22.54-92.55,2-14.79,24.88-39.25,23.69-52.05l-70.21-.79Z"/><path class="cls-13" d="M14.08,748.58,6,712.28C-2.51,651.93,9.27,632,9.27,632l-3.81-62.1c-4.55-27.53-1.7-47.62,2-60.43,3.28-11.38,5.11-19.42,5.11-19.42l4.15,2.43,19.47,12.59S16.88,603.44,18.3,628.42s-5.65,54.17-4.71,69.72c.61,10,5.08,35.29,8.2,52.15a11.75,11.75,0,0,1-7.71-1.71Z"/><path class="cls-12" d="M2.79,383.59s14.33-27,71.67-35.9c1.19-.19,4.85-1.22,8.56.31,4.9,2,9.87,8.54,9.31,27.44-.13,4.77,20.49,38.25,1,58.16,0,0-7.57,29.57,1.46,48.7,8.06,17.09-34.13,33.77-70.06,30.3-4.41-.43-16.64-4.68-12.77-20.11s15.41-41,8.18-69.41S-2,398.05,2.79,383.59Z"/><path class="cls-13" d="M2.79,382.57C-2,397,12.88,393.62,20.1,422s-4.32,55.06-8.18,70.46S16,512.6,19.54,515.25c5,3.73,10.8,3.6,15.12-2.19,3.16-28.35,33.76-76.61,17.32-98.78-10.29-13.88-22.7-21.61-25.85-24.41-6.86-6.11-23.34-7.3-23.34-7.3Z"/><path class="cls-19" d="M47.34,411.88,73.7,396.67v13.26L47.34,425.15Z"/><path class="cls-20" d="M78.05,332.76s-11.82,12.81-3.59,25.82c4.57,7.22-11.59,12.25-24.84,9.28,0,0-20.51-2.74-13.44-11.06,4.69-5.54,9.06-13.35-.49-39.2l42.36,15.16Z"/><path class="cls-21" d="M36.18,356.8a4,4,0,0,0-1.1,2.66c23.84,2.88,38.71-14.91,38.71-14.91L41.24,319.94s-1.47,1.16-3.65,3.09C44.59,344.57,40.52,351.68,36.18,356.8Z"/><path class="cls-22" d="M70.37,286.22s9.44,1.91,11.19,21.51c.21,2.17.69,37.44-11.81,40.74-9.06,2.38-26-2-35.36-23.44s7.32-51.23,36-38.81Z"/><path class="cls-20" d="M70.37,286.22s9.44,1.91,11.19,21.51c.21,2.17-1.37,8.93-13.88,12.22-9.05,2.38-29.41,7-31.5-1-5.92-22.59,5.53-45.17,34.19-32.75Z"/><path class="cls-22" d="M45.89,327.93s-4.31-10.6-10.3-6.8c-1.87,1.21-3.82,3.62-.42,9s10,9.94,14.9,8.95l-4.18-11.14Z"/><path class="cls-10" d="M68.86,277.25c-9.43-8-20.86-6.26-31.94-2.67C27.33,277.69,18,287.84,17.7,297.27c-.42,13.06,3.93,30,19.42,37.76,5.72,2.9-4.07-11.06,3.52-11.77,2.43-.23,3.16-4.24,4.92-5,1.28.62,10.86-4.59,21.25-8.15.76-.26,1.72-6.57,2.47-6.82,1-.34,1.73,5.37,2.66,5.06a41.42,41.42,0,0,0,9.23-4.61C83.42,294.2,75.53,282.93,68.86,277.25Z"/><path class="cls-12" d="M16.06,299a41.15,41.15,0,0,0,1.27,4l.3.24v0l1,.82a47.36,47.36,0,0,0,4.06,2.84,40.85,40.85,0,0,0,6.52,3.25l2.26.75.39.13,1,.28.84.2.16,0L36,312l2,.31h0l.19,0,1.05.11,1.07.08.53,0h.18l1.09,0h1.14l.7,0h0c.9,0,1.85-.09,2.77-.18l.55-.06,1.72-.23.18-.05c3-3.29,5.91-6.34,8.84-9.08,6.33-6,12.57-10.68,18.67-13.74l.19-.08c1-.5,2-1,3.06-1.36l-3.26-8.83-2.23-6.05a12.76,12.76,0,0,0-7.12-7.44c-17.42-7-33.33-4.18-47.49,10.35-5.09,6.86-6.1,14.64-3.83,23.22Z"/><path class="cls-13" d="M44,312.53h0c3.93,2.06,2.57,2.48,12.06,6.24,4,1.63,10.45,1.57,13.58-2.75l.59-.78a46.13,46.13,0,0,1,10.81-9.36l.37-.25a43,43,0,0,1,9.92-4.75,18.22,18.22,0,0,1,8.13-.95l.2-1.05c-3.42-2-6.9-4.09-10-5.94-4.74-2.85-8.55-5.05-9.69-5.19a27.73,27.73,0,0,0-3.53-.17l-.26,0H74.45a11.58,11.58,0,0,0-2.27.23c-5.36,1.38-11.46,4.79-16.66,9.2h0a45.86,45.86,0,0,0-8.24,9l-.54.85A24.49,24.49,0,0,0,44,312.53Z"/><path class="cls-22" d="M42.63,319.11c3.52,3.2,4.82,7.51,2.89,9.61s-6.31,1.19-9.85-2-4.79-7.52-2.88-9.6S39.13,315.89,42.63,319.11Z"/><path class="cls-24" d="M163.6,447.28l82.66-47.72v61.31L163.6,508.6Z"/><path class="cls-25" d="M163.61,447.32,80.94,399.59v61.29l82.67,47.72Z"/><path class="cls-26" d="M109.33,389.32l-22.6-13.05V393l22.6,13V389.32Z"/><path class="cls-29" d="M80.94,399.59l83.17-48,82.67,47.73-83.17,48L80.94,399.59Z"/><path class="cls-28" d="M116.23,379.22l20.86-12.05,82.63,47.71-20.86,12Z"/><path class="cls-9" d="M219.72,414.88l-20.86,12v60.77l20.86-12.05Z"/><path class="cls-24" d="M163.6,383.5l82.66-47.73v61.32L163.6,444.81Z"/><path class="cls-25" d="M163.61,383.53,80.94,335.81v61.28l82.67,47.73Z"/><path class="cls-26" d="M109.33,389.32l-22.6-13.05V393l22.6,13V389.32Z"/><path class="cls-26" d="M109.33,450.16l-22.6-13.05v16.75l22.6,13.05V450.16Z"/><path class="cls-29" d="M80.94,335.81l83.17-48,82.67,47.72-83.17,48L80.94,335.81Z"/><path class="cls-30" d="M116.23,315.44l20.86-12.05,82.63,47.7-20.86,12.05Z"/><path class="cls-9" d="M219.72,351.09l-20.86,12.05v61.32l20.86-12Z"/><path class="cls-11" d="M95.72,463.48s18.82,4.45,27.1.46,18.62-12.81,13.09-14.47-18.6,2.39-20.12-1.08,7-4.58,2.6-5.61-12.18,0-24.71,10.85A7.77,7.77,0,0,0,95.72,463.48Z"/><path class="cls-13" d="M6.46,379.1s13.63-5.74,21.72,15.17,21.74,55.9,21.74,55.9l3.42,4.77,46.54-6.74s-6.12,11.95,4.08,18.32c0,0-57,25.84-73.61,8.56,0,0-47.19-89.41-23.89-96Z"/><path class="cls-12" d="M99.88,448.2l-46.54,6.74-3.42-4.77s-13.63-35-21.74-55.9C21.32,376.56,10.55,378,7.39,378.8c1.46,27,30.28,81.62,30.28,81.62,11.53,12,42.63,3.17,60.49-3.32a19.28,19.28,0,0,1,1.71-8.9Z"/><path class="cls-2" d="M488.29,492.31l-176.74,102,176.74,102L665,594.35Z"/><path class="cls-3" d="M488.29,506.28,335.74,594.35l152.55,88.08,152.55-88.08Z"/><path class="cls-4" d="M488.29,511.81,340.53,597.12l147.76,85.31,147.76-85.31Z"/><path class="cls-5" d="M529.29,535.48,381.53,620.79l-4.12-2.38L525.17,533.1Z"/><path class="cls-5" d="M588.46,569.64,440.7,655l-4.12-2.38,147.75-85.31Z"/><path class="cls-6" d="M488.29,696.4,665,594.35V798.44l-176.75,102Z"/><path class="cls-3" d="M652.94,615.31,500.39,703.38V879.53l152.55-88.08Z"/><path class="cls-4" d="M647.25,618.59,500.39,703.38V873l146.86-84.8Z"/><path class="cls-3" d="M530.37,686.31l-14.26,8.23V864.13l14.26-8.23V686.31Z"/><path class="cls-7" d="M488.29,696.4l-176.74-102V798.44l176.74,102Z"/><path class="cls-3" d="M474.71,704.24,325.13,617.88V790.6L474.71,877V704.24Z"/><path class="cls-4" d="M474.71,704.24,330.12,620.76V788.88l144.59,83.48V704.24Z"/><path class="cls-3" d="M464.65,698.43l-11.31-6.53V860l11.31,6.52Z"/><path class="cls-3" d="M372,644.92l-11.31-6.53V806.51L372,813V644.92Z"/><path class="cls-5" d="M365.4,641.13V809.25l-4.13-2.39V638.74l4.13,2.39Z"/><path class="cls-5" d="M424.57,675.29V843.41L420.45,841V672.91Z"/><path class="cls-5" d="M608.6,641.13V810.49l4.12-2.38V638.75Z"/><path class="cls-5" d="M549.43,675.29V844.65l4.13-2.38V672.91Z"/><path class="cls-45" d="M407.21,776.76l-68-39.24v38.89l68,39.24Z"/><path class="cls-9" d="M590.66,781l13.28-7.67v33.19l-13.28,7.67Z"/><path class="cls-9" d="M629.41,758.58l13.28-7.66v33.19l-13.28,7.66Z"/><path class="cls-2" d="M488.29,276.63l-176.74,102,176.74,102L665,378.67Z"/><path class="cls-3" d="M488.29,290.6,335.74,378.67l152.55,88.07,152.55-88.07Z"/><path class="cls-4" d="M488.29,296.13,340.53,381.44l147.76,85.3,147.76-85.3Z"/><path class="cls-3" d="M612.73,368,465,453.28l9.74,5.62,147.76-85.31L612.73,368Z"/><path class="cls-5" d="M529.29,319.8,381.53,405.11l-4.12-2.39,147.76-85.3Z"/><path class="cls-5" d="M588.46,354,440.7,439.27l-4.12-2.39,147.75-85.3,4.13,2.38Z"/><path class="cls-6" d="M488.29,480.71,665,378.67V582.76l-176.75,102Z"/><path class="cls-3" d="M652.94,399.62,500.39,487.7V663.85l152.55-88.08Z"/><path class="cls-4" d="M647.25,402.9,500.39,487.7V657.28l146.86-84.79Z"/><path class="cls-3" d="M530.37,470.39l-14.26,8.23V648.2L530.37,640Z"/><path class="cls-7" d="M488.29,480.71l-176.74-102V582.76l176.74,102Z"/><path class="cls-3" d="M474.71,488.55,325.13,402.19V574.91l149.58,86.36V488.55Z"/><path class="cls-4" d="M474.71,488.55,330.12,405.08V573.2l144.59,83.48V488.55Z"/><path class="cls-3" d="M464.65,482.71l-11.31-6.53V644.3l11.31,6.53Z"/><path class="cls-3" d="M372,429.19l-11.31-6.52V590.79L372,597.31Z"/><path class="cls-5" d="M365.4,425.44V593.57l-4.13-2.39V423.06Z"/><path class="cls-5" d="M424.57,459.61V627.73l-4.12-2.39V457.22Z"/><path class="cls-5" d="M608.6,425.44V594.81l4.12-2.39V423.06Z"/><path class="cls-5" d="M549.43,459.61V629l4.13-2.38V457.22Z"/><path class="cls-46" d="M407.21,561.08l-68-39.25v38.89l68,39.25Z"/><path class="cls-9" d="M590.66,565.27l13.28-7.66V590.8l-13.28,7.66Z"/><path class="cls-9" d="M629.41,542.9l13.28-7.66v33.19l-13.28,7.66Z"/><path class="cls-42" d="M543.8,448.66l-23.94,13.82v419.4l23.94-13.83V448.66Z"/><path class="cls-42" d="M636.9,394.91,613,408.74V828.13l23.94-13.82V394.91Z"/><path class="cls-43" d="M367.06,346.62l-23.94,13.82,176.74,102,23.95-13.82Z"/><path class="cls-42" d="M418,376l-23.94,13.83,11.05,6.38,23.95-13.83Z"/><path class="cls-42" d="M510.2,429.25l-23.94,13.83,11.05,6.38,23.95-13.82Z"/><path class="cls-43" d="M460.16,292.87l-23.94,13.82L613,408.74l23.95-13.83Z"/><path class="cls-42" d="M511.12,322.29l-23.94,13.83,11.05,6.38,23.94-13.82-11-6.39Z"/><path class="cls-42" d="M603.29,375.51l-23.95,13.82,11.06,6.38,23.94-13.82Z"/><path class="cls-42" d="M436.22,448.66l23.94,13.82v419.4l-23.94-13.83V448.66Z"/><path class="cls-42" d="M343.12,394.91l23.94,13.83V828.13l-23.94-13.82V394.91Z"/><path class="cls-44" d="M613,346.62l23.94,13.82-176.74,102-24-13.82Z"/><path class="cls-44" d="M519.86,292.87l23.94,13.82L367.06,408.74l-23.94-13.83Z"/><path class="cls-29" d="M543.5,83.28,390.55,171.59l153,88.3,153-88.3-153-88.31Z"/><path class="cls-25" d="M696.46,171.59l-153,88.3V436.51l153-88.31Z"/><path class="cls-9" d="M643.55,202.89,596.42,230.1v60.34l47.13-27.21Z"/><path class="cls-30" d="M490.6,114.58l-47.13,27.21L596.42,230.1l47.13-27.21Z"/><path class="cls-24" d="M543.5,259.89l-152.95-88.3V348.2l153,88.31Z"/><path class="cls-47" d="M479.33,322.49l-71.74-41.41v51.1l71.74,41.42Z"/><path class="cls-9" d="M653.12,320.45l14.07-8.13v35.19l-14.07,8.13Z"/><path class="cls-9" d="M671.92,309.6,686,301.47v35.19l-14.07,8.13Z"/><path class="cls-33" d="M1346.46,807.57l-117.13,67.62,117.13,67.62,117.12-67.62-117.12-67.62Z"/><path class="cls-25" d="M1463.58,875.18l-117.12,67.63v76.43l117.12-67.62Z"/><path class="cls-9" d="M1423.06,899.16,1387,920v27.25l36.09-20.84Z"/><path class="cls-34" d="M1305.93,831.53l-36.09,20.84L1387,920l36.09-20.84-117.13-67.62Z"/><path class="cls-24" d="M1346.46,942.81l-117.13-67.62v76.43l117.13,67.63Z"/><path class="cls-48" d="M1328.69,970.77l-45.51-26.27v21.35l45.51,26.28Z"/><path class="cls-9" d="M1432.84,932.54l10.78-6.23v27l-10.78,6.22Z"/><path class="cls-9" d="M1446.23,925l10.78-6.22v27l-10.78,6.22Z"/><path class="cls-29" d="M1346.46,725l117.12,67.63-117.12,67.62-117.13-67.62Z"/><path class="cls-25" d="M1229.33,792.67l117.13,67.62v76.43L1229.33,869.1V792.67Z"/><path class="cls-9" d="M1269.84,816.64l36.09,20.83v27.26l-36.09-20.84V816.64Z"/><path class="cls-30" d="M1387,749l36.09,20.84-117.13,67.62-36.09-20.83Z"/><path class="cls-24" d="M1346.46,860.28l117.12-67.62V869.1l-117.12,67.62V860.28Z"/><path class="cls-49" d="M1364.21,888.26,1409.72,862v21.35l-45.51,26.28V888.26Z"/><path class="cls-9" d="M1260.07,850l-10.78-6.22v26.94l10.78,6.22V850Z"/><path class="cls-9" d="M1246.68,842.45l-10.78-6.22v26.95l10.78,6.22V842.45Z"/><path class="cls-24" d="M1502.33,554.48,1405,498.31v166l97.29,56.17Z"/><path class="cls-25" d="M1502.33,637.49l-28.7,16.57-37.48,28.2,14.79,8.54s12.13-10.84,17.46-21.75c15.56-3.52,33.93-11.08,33.93-11.08V637.49Z"/><path class="cls-25" d="M1502.33,554.52l97.29-56.17V664.3l-97.29,56.17Z"/><path class="cls-26" d="M1566.2,561.34,1592.8,546V565.7l-26.6,15.36Z"/><path class="cls-26" d="M1566.2,632.94l26.6-15.35V637.3l-26.6,15.36Z"/><path class="cls-29" d="M1599.62,498.35l-97.89-56.51L1404.44,498l97.89,56.51Z"/><path class="cls-30" d="M1558.09,474.38l-24.56-14.18-97.26,56.15,24.56,14.18,97.26-56.15Z"/><path class="cls-9" d="M1436.28,516.35l24.56,14.18v166l-24.56-14.18Z"/><path class="cls-9" d="M302.76,481.9q-79.32,283.32-158.64,566.65c-4.26,15.22,19.3,21.66,23.55,6.48Q247,771.72,326.31,488.39c4.26-15.2-19.3-21.66-23.55-6.49Z"/><path class="cls-9" d="M426,545q-79.29,283.31-158.63,566.64c-4.26,15.23,19.3,21.69,23.54,6.49q79.33-283.3,158.65-566.63c4.26-15.24-19.3-21.7-23.56-6.5Z"/><path class="cls-9" d="M286.12,575.2l120.27,73.65c13.28,8.14,25.46-12.71,12.25-20.81q-60.13-36.84-120.27-73.66C285.1,546.25,272.91,567.1,286.12,575.2Z"/><path class="cls-9" d="M262.94,670.57Q319.25,706.75,375.55,743c13.1,8.42,25.26-12.44,12.25-20.8Q331.49,686,275.19,649.76c-13.09-8.42-25.26,12.45-12.25,20.81Z"/><path class="cls-9" d="M238.63,777.21l111.69,66.11c13.38,7.93,25.58-12.92,12.24-20.81L250.87,756.4C237.48,748.47,225.28,769.32,238.63,777.21Z"/><path class="cls-9" d="M210.69,857.74Q266.87,893.14,323,928.5c13.17,8.3,25.34-12.56,12.24-20.81L222.94,836.93C209.78,828.65,197.6,849.51,210.69,857.74Z"/><path class="cls-9" d="M185.83,956.29l110.92,66.78c13.33,8,25.52-12.82,12.25-20.81L198.07,935.48c-13.33-8-25.52,12.82-12.24,20.81Z"/><g id="People"><path class="cls-12" d="M264,486.12s-7-36.63,12.56-50c6.92-4.72,20.92-3.2,30.68,11C331.75,482.6,337,493.51,337,493.51l50-47.67s12.86,2.86,15.05,11.6c0,0-44.42,60.11-69,69.22C333,526.66,285.21,527.06,264,486.12Z"/><path class="cls-50" d="M333,526.66l4-33.15,50-47.67s12.86,2.86,15.05,11.6C402.05,457.44,357.63,517.55,333,526.66Z"/><path class="cls-31" d="M402.11,457.46s12.67-8.54,16.82-14,5.52-10.18,5.7-12.05-5.72,3.57-7.56,5.4-8.12,2.79-1.14-11.65-11.21-5.49-12.54-5.27-11.11,8.57-16.4,25.92a25,25,0,0,1,15.12,11.62Z"/><path class="cls-50" d="M308.42,493.91s-6.24-22.56-10.67-39.72c-3.3-12.79,11.41-2.25,23.37,3,11.59,5.09,14.35-2.44,19.69-.45a213.49,213.49,0,0,0,60,13.19c9.33.6,15.05.16,15.59-.16,34.8-20.57,63-46.38,63-46.38s14.89,8.53,11.21,13c-25.09,30.07-37,53.75-66.31,70.06,0,0-45,6.94-61.21,8.5-6.23.6-29.36,5.43-32.42,39.78,6.27-61.18-19.13-45.38-22.29-60.78Z"/><path class="cls-51" d="M181.75,896.91c4.8-20.2,38.56,11.55,43.72,18.87,2.35,3.33-15.45,14.14-27.21,17.25-5.35,1.41-20.75-5.67-22.06-6.85C172.79,923.13,177.5,914.85,181.75,896.91Z"/><path class="cls-52" d="M196.43,922.82c2.24,4.78,12.22,1.81,19.49-3,5.91-3.89,5.76-5.11,4-10.25,1.72.06,4.57,4.82,5.54,6.19,2.35,3.33-15.45,14.14-27.21,17.25-5.35,1.41-20.75-5.67-22.06-6.85-1.7-1.52-1.38-4.36-.1-9s18.91,2.66,20.33,5.69Z"/><path class="cls-51" d="M251.37,954.15s-2.38,7.85-5.77,22c-1.7,7,21.26,11.35,28.89,10.81,48.75-3.49,49.26-10.38,46.63-13.8-7.68-10-27-24.55-27-24.55Z"/><path class="cls-51" d="M251.37,954.15s-2.38,7.85-5.77,22c-1.7,7,21.26,11.35,28.89,10.81,48.75-3.49,49.26-10.38,46.63-13.8-7.68-10-27-24.55-27-24.55Z"/><path class="cls-52" d="M273.69,980.17s-23.66-21.6-25.76-13.45q-1.05,4.08-2.33,9.38c-1.7,7,21.26,11.35,28.89,10.8,48.75-3.48,49.26-10.37,46.63-13.79-2-2.62-3.94-7-7.89-8.46,4.33,7-2.36,10.13-2.36,10.13l-37.18,5.39Z"/><path class="cls-13" d="M239.23,616.61s-10.31,100-12.82,113.29S202.9,828.25,181,900.07c0,0,31.17,18.56,34.55,0,2-11.13,46.15-138.92,54.16-157.56,12.12-28.36,27-119.11,27-119.11l-57.44-6.79Z"/><path class="cls-13" d="M280.82,623s-3.42,203.39-29.45,331.16c0,0,33.61,16.28,42.73-5.59,0,0,23.73-132,30.12-159.34s29.34-112.48,26.86-158.83-70.26-7.4-70.26-7.4Z"/><path class="cls-53" d="M253.27,682.61c-4.06,24.92-9.79,52.82-17.37,73.18-15.77,42.29-27,128.2-35.27,151.89-14.31-2.66-25.5-11.44-25.5-11.44-12.6-29,19.57-72.5,34.19-133.68,13.06-54.67-.17-92.14,37.66-161.09l13.93,22s-.16,1.77-.48,4.94l58.38,23.32s-1.18,66.6-20.45,150.66C283.43,867.5,270,933,264.76,958.72a55.73,55.73,0,0,1-23-10.15c-6-45.67,11.48-96.35,24.06-140,2.44-45.63,7.35-85.37,4.61-90.27-8.56-15.31-14-26.59-17.11-35.71Z"/><path class="cls-54" d="M274.41,433c-18,7.52-23.1,41.94-23,88.08.09,46.78-15,51.8-18.38,82.87,0,0,4.42,16.46,13.33,21,4.06,2.09,12.14,12.29,51.24,25.13,0,0,51.32,15.85,49.07-23S359.21,549,363.33,535s24.21-25.81-4-59.11c-27.14-32-66.9-50.44-84.89-42.91Z"/><path class="cls-55" d="M309.73,413.57s-.88,12.28-5.88,21.46c-.78,1.43-6.47,5.94,1.73,11.11,4.95,3.13,25.3,4.68,34.08,9.61.79.45-11.91-5.77,1.4-32.26C345.56,414.55,309.73,413.57,309.73,413.57Z"/><path class="cls-50" d="M357.63,378.28S358,428,355.08,430c-4.93,3.26-20.71,10-31.58,3.61-13.11-7.79-24.27-29.91-15-46.21s30.59-27.22,49.09-9.08Z"/><path class="cls-55" d="M327.84,427c3.34,2.63,4.76.33,5.28,1.62,4.29,10.75,24.58-.41,22,1.3-4.93,3.26-20.71,10-31.58,3.62C310.39,425.78,319.57,420.54,327.84,427Z"/><path class="cls-55" d="M357.56,398.17c0-1.51,3.76,8.16,3.65,11-.1,2.32-1.58,2.39-4,4,.2-4.8.32-10.09.39-15.06Z"/><path class="cls-56" d="M357.45,373s5.16,12.95-8.3,16.72c-7.92,2.2-10.35,13.36-9.63,20.42.18,1.77,2,6.88,1.51,7.72s-4.51,2.72-4.82,2.38c-2.28-2.48-3.08-8.72-7.85-7.3a6.36,6.36,0,0,0-1.71.8c-4.69,3-1.31,10.3,1.39,13.57.69.82,3.49-.54,3.23,1.18a7.94,7.94,0,0,1-1.91,3.29c-5,6.33-16.27,2.54-21.05-2.42-3.82-4-5-6.23-8.59-18.73-5.22-18.23-1.86-38.34,19.87-45.37S357.84,367.44,357.45,373Z"/><path class="cls-13" d="M373.71,378.13c1.35,2.68-.92,6-3.33,7.84s-15.81,6.16-18.73,7.07c1.07-3.54.78-9.78-2-12.28s-18.78-6.69-22.41-5.65c3.47-3.26,17.93-9.69,22.73-9.4C355.3,366,368.15,367.06,373.71,378.13Z"/><path class="cls-12" d="M296.13,373.37c-2.44,6-3.34,22.83-.75,25L310,404.64c13.78,2.68,31.7-1.76,41.7-10.77,5.18-4.69,7.24-9.73,6.49-14.15l0-.05c-1.31-7.35-3.77-12.79-7.08-16.8a26.73,26.73,0,0,0-3.89-3.79,27.35,27.35,0,0,0-3.56-2.3c-7.13-3.85-18.12-3.52-26-1.55a30.12,30.12,0,0,0-9.72,4.29l-.24.17a37.46,37.46,0,0,0-8.39,8.07,22.09,22.09,0,0,0-3.18,5.57l0,0Z"/><path class="cls-57" d="M358.82,628.53c-2.27-38.87.4-79.5,4.51-93.52s32.29-38.46-13.06-66.16c-13.37,5.08-21,14.95-16.17,43.32,4.56,26.79-12,109-15.58,141.14a30.78,30.78,0,0,0,18.08-3.85c6.38-3.65,22.91-9,22.22-20.93Z"/><path class="cls-31" d="M362.5,518.38c-47.79,12.1-60.61-66.51-21.7-61.63,33.58,4.21,48.54,8.72,70.37,12.25,9.22,1.5.92,40.58-4.89,42.16-9.69,2.62-28,3.22-43.78,7.22Z"/><path class="cls-31" d="M477.13,425.74s5.11-12.73,8.78-17.69c8.82-11.92,14.27-14,15.29-12.66s-3.39,7.33-4.57,9.34,7.94-7.46,9.93-6.26C509,400,513.47,402,514.34,405c3,10.19-12.35,25.25-23.69,31.37C490.65,436.35,486.24,427.81,477.13,425.74Z"/></g><g id="People1"><path class="cls-58" d="M1616.07,905.65c-.6-12.85-19.91,3.09-31.09.16-2.65-.69-10.83-1.53-11.51,7-.25,3.1,14.44,13,22.8,17,3.8,1.8,16.33-1.36,17.48-2.06,3-1.81,3-8,2.32-22Z"/><path class="cls-59" d="M1553.54,938.17s.67,6.2,1.21,17.21c.27,5.51-17.51,5.54-23.14,4.08-36-9.37-26.1-7.39-34-11.85-8.19-4.6-9.73-15.88-1.81-15.54,8.59.37,26.6-4,26.6-4Z"/><path class="cls-60" d="M1553.54,938.17s.67,6.2,1.21,17.21c.27,5.51-17.51,5.54-23.14,4.08-36-9.37-35.39-14.59-32.94-16.78,7.16-6.41,23.69-14.61,23.69-14.61l31.18,10.1Z"/><path class="cls-13" d="M1613.25,673.54s.17,91.21.17,101.48-5.78,76,.49,132.74a29.29,29.29,0,0,1-15.05,4.25c-5.52.11-10.39-.48-10.42-6-.06-8.61-15.28-113.56-18.64-128.61-5.06-22.88-3.36-92.8-3.36-92.8Z"/><path class="cls-13" d="M1578.35,686.49S1552.14,839,1553.54,938.17c0,0-27.45,7.52-31.18-10.1,0,0,.92-102,0-123.31s-6-88.16,2.37-122.48,53.62,4.21,53.62,4.21Z"/><path class="cls-61" d="M1590.53,734.87c-.49,19.2-.14,40.85,2.65,57.12,5.81,33.81,2.84,101.17,5.67,120a31.93,31.93,0,0,0,16.37-5c16.77-10.55-2.49-93.59,0-103.56,8.42-33.64-2-121.4-2-129.27l-20.08,15.43s-.14,1.35-.34,3.76l-47,9.35s-8.53,50-6,115.48c2,50.71,2.77,101.52,3,121.51,10.31.12,11.88-2.26,11.88-2.26,27.25-23.92,8.27-93.65,11.25-110.1,2.49-13.69,4.38-65.43,6.67-68.17,8.57-10.26,14.23-17.94,17.85-24.33Z"/><path class="cls-62" d="M1606.4,517s36.83,17.76,23.91,54.4c-14,39.59-11.16,89.25-11.53,105.31,0,0-.28,10-5.5,13-3.52,2-12.58,8.73-48.69,13.6,0,0-47.24,5.5-38.9-27.9s1.92-69.87.65-82.72S1524.66,554,1539.56,542c29.56-23.75,46.29-26.28,66.84-25Z"/><path class="cls-55" d="M1596,491.71s-1.48,12.8,1.89,23.22c.52,1.61,5.51,7.34-4,11.11-5.71,2.27-27,0-37,3.39-.9.31,13.39-3.67,4.84-33.49-2.89-10.06,34.21-4.23,34.21-4.23Z"/><path class="cls-50" d="M1553.55,446.23s-10.11,51.13-7.44,53.69c4.45,4.3,19.39,14.29,31.84,9.75,15-5.52,30.83-26.16,24.41-44.72s-26.21-33.86-48.81-18.72Z"/><path class="cls-63" d="M1545.7,484.05c.44-1,1.22-1.9,2.52-1.39a8.33,8.33,0,0,1,2.37,1.4,5.31,5.31,0,0,1,1.72,3.5,25.36,25.36,0,0,0,1.78,5.93,6,6,0,0,0,2.47,2.3,4.67,4.67,0,0,0,1.06.39c.06,0,.66.1.58.18a4.15,4.15,0,0,1-1.68.58,7.4,7.4,0,0,1-4.87-.27c-3.76-1.5-6-5.61-6-9.56,0-.33,0-.69,0-1.05-.63-.23-.24-1.19-.11-1.58a3.75,3.75,0,0,1,.16-.43Z"/><path class="cls-55" d="M1574.75,502.11c-4,2.07-5-.57-5.75.66-6.52,10.25-25.25-5.12-22.89-2.85,4.45,4.3,19.39,14.29,31.84,9.75C1593,504.15,1584.53,497,1574.75,502.11Z"/><path class="cls-55" d="M1549.75,466.73c.27-1.56-5.47,7.68-5.9,10.64-.36,2.41,1.16,2.77,3.37,4.93C1548,477.32,1548.85,471.86,1549.75,466.73Z"/><path class="cls-63" d="M1554.76,440.81s-7.84,12.35,5.3,18.79c7.73,3.79,8.06,15.73,5.94,22.87-.53,1.79-3.37,6.71-3.06,7.66s4.12,3.66,4.51,3.37c2.82-2.12,4.86-8.39,9.51-6a6.76,6.76,0,0,1,1.61,1.15c4.23,4-.66,10.85-4.09,13.7-.87.73-3.48-1.21-3.55.6a8.31,8.31,0,0,0,1.33,3.76c3.94,7.48,16.27,5.71,22.15,1.52,4.71-3.36,6.38-5.45,12.5-17.65,8.93-17.77,9.39-39.11-11.63-50.5s-39.84-5-40.52.75Z"/><path class="cls-13" d="M1537,443c-1.91,2.5-.22,6.35,1.9,8.71s15.09,9.35,17.92,10.85c-.41-3.85,1.11-10.22,4.46-12.26s20.65-3.31,24.19-1.54c-3-4-16.59-13.4-21.59-14-5.55-.7-19-2.07-26.88,8.26Z"/><path class="cls-12" d="M1617.86,452.91c1.36,6.6-1,24.15-4.09,25.84l-16.3,3.71c-14.72.12-32.33-7.87-40.87-19-4.43-5.81-5.56-11.4-3.94-15.81l0-.05c2.77-7.32,6.37-12.45,10.56-15.95a28.82,28.82,0,0,1,4.75-3.16,29.85,29.85,0,0,1,4.11-1.69c8.1-2.6,19.35-.16,27.13,3.37a31.49,31.49,0,0,1,9.17,6.27l.21.23a38.53,38.53,0,0,1,7.08,9.9,23.33,23.33,0,0,1,2.19,6.34l0,.05Z"/><path class="cls-13" d="M1521.18,674.32c8.37-33.41,6.43-68.75,5.16-81.6s-3-19.93,20.44-42.15c10.79,6.57,36.33,4.26,13.87,59.3-9.08,22.27-12.61,64.36-14.79,92.87a27.16,27.16,0,0,1-15.09-6.26C1525.82,692.28,1518.62,684.58,1521.18,674.32Z"/><path class="cls-31" d="M1460.68,648.19s-8.84,4.29-9.87,4.94c-3.09,2-9.62,6.23-12.46,9.17-9.09,9.42-9.79,16.82-8.47,17.51s4.17-5.27,7.16-7.68c1.6-1.29-5.41,8.24-5,13.79.16,2.54,6.22,7.83,9.78,2,6.83-11.22,16.94-6.3,22.21-24.83,0,0-3.66-5.3-3.31-14.86Z"/><path class="cls-64" d="M1555.65,594.22c15.09-57.21,1-47.59-3.9-46.52-23,5-23.07,51.57-52.34,71.73s-38.73,28.76-38.73,28.76-2.26,10.29,3.31,14.86c0,0,30.21.41,63.63-32,0,0,22.15-14.51,28-36.78Z"/><path class="cls-31" d="M1566,599c21.65-30.21,5.54-62-16.86-56.34-18.84,4.76-24.72,40.76-38.08,64-2.82,4.91,23,26.33,26.14,23.7A193.32,193.32,0,0,0,1566,599Z"/></g><path class="cls-2" d="M684.51,605.59l-176.74,102,176.74,102,176.74-102Z"/><path class="cls-3" d="M684.51,619.56,532,707.64l152.55,88.07,152.55-88.07Z"/><path class="cls-4" d="M684.51,625.09,536.75,710.4l147.76,85.31L832.27,710.4Z"/><path class="cls-5" d="M725.5,648.76,577.75,734.07l-4.13-2.38,147.76-85.31Z"/><path class="cls-5" d="M784.67,682.93,636.91,768.24l-4.12-2.39,147.75-85.31,4.13,2.39Z"/><path class="cls-6" d="M684.51,809.68l176.74-102V911.72l-176.74,102Z"/><path class="cls-3" d="M849.15,728.59,696.6,816.66V992.81l152.55-88.07V728.59Z"/><path class="cls-4" d="M843.47,731.87,696.61,816.66V986.25l146.86-84.79Z"/><path class="cls-3" d="M726.58,799.59l-14.26,8.24V977.41l14.26-8.23V799.59Z"/><path class="cls-7" d="M684.51,809.68l-176.74-102V911.72l176.74,102Z"/><path class="cls-3" d="M670.93,817.52,521.35,731.16V903.88l149.58,86.36V817.52Z"/><path class="cls-4" d="M670.93,817.52,526.34,734V902.17l144.59,83.47V817.52Z"/><path class="cls-3" d="M660.87,811.72l-11.31-6.53V973.31l11.31,6.53Z"/><path class="cls-3" d="M568.18,758.2l-11.31-6.52V919.8l11.31,6.52Z"/><path class="cls-5" d="M561.61,754.41V922.53l-4.12-2.38V752l4.12,2.38Z"/><path class="cls-5" d="M620.78,788.57V956.69l-4.12-2.38V786.19l4.12,2.38Z"/><path class="cls-5" d="M804.82,754.41V923.78l4.12-2.39V752l-4.12,2.38Z"/><path class="cls-5" d="M745.64,788.57V957.94l4.13-2.39V786.19l-4.13,2.38Z"/><path class="cls-65" d="M603.43,890.05l-68-39.25v38.89l68,39.25Z"/><path class="cls-9" d="M786.88,894.25l13.28-7.67v33.19l-13.28,7.66Z"/><path class="cls-9" d="M825.63,871.87l13.28-7.67v33.19l-13.28,7.67Z"/><path class="cls-2" d="M684.51,389.91,507.77,492,684.51,594,861.25,492Z"/><path class="cls-3" d="M684.51,403.88,532,492,684.51,580,837.06,492Z"/><path class="cls-4" d="M684.51,409.41,536.75,494.72,684.51,580l147.76-85.31Z"/><path class="cls-3" d="M808.94,481.25,661.18,566.56l9.74,5.63,147.76-85.31Z"/><path class="cls-5" d="M725.5,433.08,577.75,518.39,573.62,516,721.38,430.7Z"/><path class="cls-5" d="M784.67,467.25l-147.76,85.3-4.12-2.38,147.75-85.31Z"/><path class="cls-6" d="M684.51,594,861.25,492V696l-176.74,102Z"/><path class="cls-3" d="M849.15,512.91,696.6,601V777.13l152.55-88.08V512.91Z"/><path class="cls-4" d="M843.47,516.19,696.61,601V770.57l146.86-84.8Z"/><path class="cls-3" d="M726.58,583.67l-14.26,8.23V761.49l14.26-8.23Z"/><path class="cls-7" d="M684.51,594,507.77,492V696l176.74,102Z"/><path class="cls-3" d="M670.93,601.84,521.35,515.48V688.2l149.58,86.36V601.84Z"/><path class="cls-4" d="M670.93,601.84,526.34,518.36V686.48L670.93,770V601.84Z"/><path class="cls-3" d="M660.87,596l-11.31-6.53V757.59l11.31,6.52Z"/><path class="cls-3" d="M568.18,542.48,556.87,536V704.07l11.31,6.53Z"/><path class="cls-5" d="M561.61,538.73V706.85l-4.12-2.38V536.34l4.12,2.39Z"/><path class="cls-5" d="M620.78,572.89V741l-4.12-2.38V570.51l4.12,2.38Z"/><path class="cls-5" d="M804.82,538.73V708.09l4.12-2.38V536.34Z"/><path class="cls-5" d="M745.64,572.89V742.25l4.13-2.38V570.51Z"/><path class="cls-66" d="M603.43,674.37l-68-39.25V674l68,39.25Z"/><path class="cls-9" d="M786.88,678.56l13.28-7.67v33.19l-13.28,7.67Z"/><path class="cls-9" d="M825.63,656.19l13.28-7.67v33.19l-13.28,7.67Z"/><path class="cls-42" d="M740,562l-23.95,13.82V995.16L740,981.34V562Z"/><path class="cls-42" d="M833.11,508.2,809.17,522v419.4l23.94-13.83Z"/><path class="cls-43" d="M563.27,459.9l-23.94,13.83,176.75,102L740,562Z"/><path class="cls-42" d="M614.24,489.33,590.3,503.15l11.06,6.38,23.94-13.82-11.06-6.38Z"/><path class="cls-42" d="M706.41,542.54l-23.94,13.82,11,6.39,24-13.83Z"/><path class="cls-43" d="M656.37,406.15,632.43,420,809.17,522l24-13.82Z"/><path class="cls-42" d="M707.34,435.58,683.4,449.4l11.05,6.39L718.39,442Z"/><path class="cls-42" d="M799.51,488.79l-24,13.83L786.62,509l23.94-13.82Z"/><path class="cls-42" d="M632.43,562l23.94,13.82V995.16l-23.94-13.82V562Z"/><path class="cls-42" d="M539.34,508.2,563.28,522v419.4l-23.94-13.83Z"/><path class="cls-44" d="M809.17,459.9l23.94,13.83-176.74,102-24-13.82Z"/><path class="cls-44" d="M716.08,406.15,740,420,563.28,522,539.34,508.2Z"/><path class="cls-29" d="M824,831.23,710.07,897,824,962.76,937.89,897Z"/><path class="cls-25" d="M937.9,897,824,962.76v131.53l113.92-65.77Z"/><path class="cls-9" d="M898.49,920.31l-35.1,20.26v44.94l35.1-20.26Z"/><path class="cls-30" d="M784.58,854.54l-35.1,20.26,113.91,65.77,35.1-20.27Z"/><path class="cls-24" d="M824,962.76,710.07,897v131.53L824,1094.29Z"/><path class="cls-67" d="M776.19,1009.38l-53.43-30.85v38.06l53.43,30.85Z"/><path class="cls-9" d="M905.61,1007.87l10.49-6.06V1028l-10.49,6Z"/><path class="cls-9" d="M919.61,999.78l10.48-6v26.2L919.61,1026Z"/><path class="cls-2" d="M523.22,968l-176.74,102,176.74,102,176.75-102Z"/><path class="cls-3" d="M523.22,982l-152.55,88.07,152.55,88.08,152.55-88.08Z"/><path class="cls-4" d="M523.22,987.51l-147.76,85.31,147.76,85.31L671,1072.82Z"/><path class="cls-3" d="M647.66,1059.35,499.9,1144.66l9.74,5.63L657.4,1065l-9.74-5.63Z"/><path class="cls-5" d="M564.22,1011.18l-147.75,85.31-4.13-2.38L560.1,1008.8Z"/><path class="cls-5" d="M623.39,1045.34l-147.76,85.31-4.12-2.38L619.27,1043Z"/><path class="cls-6" d="M523.22,1172.1l176.75-102v204.09l-176.75,102Z"/><path class="cls-3" d="M687.87,1091l-152.55,88.07v176.15l152.55-88.07Z"/><path class="cls-4" d="M682.18,1094.28l-146.86,84.8v169.58l146.86-84.79Z"/><path class="cls-3" d="M565.3,1161.78,551,1170v169.58l14.26-8.22Z"/><path class="cls-7" d="M523.22,1172.1l-176.74-102v204.09l176.74,102Z"/><path class="cls-3" d="M509.64,1179.94l-149.58-86.36V1266.3l149.58,86.36Z"/><path class="cls-4" d="M509.64,1179.94l-144.59-83.47v168.12l144.59,83.47Z"/><path class="cls-3" d="M499.58,1174.09l-11.3-6.53v168.12l11.3,6.53Z"/><path class="cls-3" d="M406.9,1120.58l-11.31-6.53v168.12l11.31,6.53V1120.58Z"/><path class="cls-5" d="M400.33,1116.83V1285l-4.13-2.38V1114.45Z"/><path class="cls-5" d="M459.49,1151v168.12l-4.12-2.38V1148.61Z"/><path class="cls-5" d="M643.53,1116.83v169.36l4.12-2.38V1114.45Z"/><path class="cls-5" d="M584.36,1151v169.36l4.13-2.38V1148.61Z"/><path class="cls-68" d="M442.14,1252.47l-68-39.25v38.89l68,39.24Z"/><path class="cls-9" d="M625.59,1256.66l13.28-7.67v33.19l-13.28,7.67Z"/><path class="cls-9" d="M664.34,1234.29l13.28-7.66v33.19l-13.28,7.66Z"/><path class="cls-42" d="M671.83,1086.3l-23.94,13.83V1306l23.94-13.83Z"/><path class="cls-42" d="M578.74,1140.05l-24,13.82v205.88l24-13.83Z"/><path class="cls-43" d="M402,1038l-23.95,13.82,176.75,102,23.94-13.82Z"/><path class="cls-42" d="M453,1067.43,429,1081.25l11.05,6.39L464,1073.81Z"/><path class="cls-42" d="M545.13,1120.64l-23.94,13.82,11,6.39,24-13.83Z"/><path class="cls-43" d="M495.09,984.25l-23.94,13.83,176.74,102,24-13.82-176.75-102Z"/><path class="cls-42" d="M546.05,1013.68l-23.94,13.82,11,6.38,23.94-13.82Z"/><path class="cls-42" d="M638.22,1066.89l-24,13.82,11.06,6.38,23.94-13.82Z"/><path class="cls-42" d="M471.15,1140.05l23.94,13.82v206.07l-23.94-13.82Z"/><path class="cls-42" d="M378.05,1086.3,402,1100.13V1306.2l-23.94-13.82Z"/><path class="cls-44" d="M647.89,1038l23.94,13.82-176.74,102-23.95-13.82Z"/><path class="cls-44" d="M554.79,984.25l24,13.83L402,1100.12l-23.94-13.82,176.74-102Z"/></g></g></svg>